<svg id="Layer_1" data-name="Layer 1" xmlns="http://www.w3.org/2000/svg" viewBox="0 0 2566.82 928.94"><defs><style>.cls-1{fill:#66452a;}.cls-2{fill:#d59543;}</style></defs><path class="cls-1" d="M223.66,346.47A174.14,174.14,0,0,0,97.07,401V218.71a24,24,0,0,0-48,0V528.36a23.69,23.69,0,0,0,.4,4.32c6,90.87,81.83,163,174.19,163,96.27,0,174.59-78.32,174.59-174.59S319.93,346.47,223.66,346.47Zm0,301.18A126.59,126.59,0,1,1,350.25,521.06,126.74,126.74,0,0,1,223.66,647.65Z"/><path class="cls-1" d="M1665.83,346.47A174.14,174.14,0,0,0,1539.24,401V218.71a24,24,0,0,0-48,0V528.36a23.69,23.69,0,0,0,.4,4.32c6,90.87,81.83,163,174.19,163,96.27,0,174.59-78.32,174.59-174.59S1762.1,346.47,1665.83,346.47Zm0,301.18a126.59,126.59,0,1,1,126.59-126.59A126.74,126.74,0,0,1,1665.83,647.65Z"/><path class="cls-1" d="M464.37,346.47a24,24,0,0,0-24,24V671.65a24,24,0,0,0,48,0V370.47A24,24,0,0,0,464.37,346.47Z"/><path class="cls-1" d="M802.5,359.66a24,24,0,0,0-21.43-13.18H559.9a24,24,0,0,0,0,48H733.5L539.39,657.25l-.06.1,0,0-.08.1-.61.87-.12.2c-.18.27-.35.53-.51.81-.06.09-.11.19-.16.28-.15.25-.29.49-.42.74l-.18.36c-.12.23-.23.46-.34.69s-.13.28-.2.43l-.27.64c-.07.16-.13.32-.19.48s-.16.4-.23.6l-.18.54q-.1.29-.18.57c-.06.2-.12.39-.17.59s-.1.35-.14.53-.11.44-.16.66-.07.32-.1.47-.09.5-.13.74,0,.28-.07.42-.07.55-.1.82,0,.23,0,.34c0,.31-.05.62-.07.93a2.28,2.28,0,0,0,0,.26c0,.34,0,.68,0,1v.19q0,.51,0,1v.21c0,.2,0,.39,0,.59a23.62,23.62,0,0,0,1.29,6.15l0,.05c.1.31.22.61.34.91l.09.21c.1.25.21.49.32.73l.16.37c.09.19.18.37.28.55l.27.54c.07.12.14.24.2.36s.26.46.4.69l.12.19c.17.27.34.55.52.82l0,0a24.09,24.09,0,0,0,4.22,4.72l.41.36.19.15c.26.2.51.41.78.6l0,0,0,0c.49.37,1,.71,1.52,1l.11.07q.75.46,1.53.87l.26.13q.77.39,1.56.72l.2.08c.47.2,1,.37,1.45.54l.29.1c.51.16,1,.3,1.55.43l.41.1c.46.1.93.19,1.4.27l.26,0c.51.07,1,.13,1.54.18l.53,0c.46,0,.93,0,1.4,0H779.19a24,24,0,0,0,0-48h-173l194.2-262.91A24,24,0,0,0,802.5,359.66Z"/><path class="cls-1" d="M1106.67,359.66a24,24,0,0,0-21.43-13.18H864.07a24,24,0,0,0,0,48h173.61L843.57,657.25a.36.36,0,0,0-.07.1l0,0-.08.1-.61.87-.12.2c-.18.27-.35.53-.51.81-.06.09-.11.19-.16.28l-.42.74-.18.36c-.12.23-.23.46-.34.69s-.13.28-.19.43-.19.42-.28.64-.13.32-.19.48-.16.4-.23.6l-.18.54c-.06.19-.13.38-.18.57s-.12.39-.17.59-.1.35-.14.53-.11.44-.15.66-.08.32-.11.47-.09.5-.13.74-.05.28-.07.42-.07.55-.1.82,0,.23,0,.34c0,.31,0,.62-.07.93,0,.09,0,.17,0,.26,0,.34,0,.68,0,1,0,.06,0,.11,0,.17v0q0,.51,0,1v.21c0,.2,0,.39.05.59a23.62,23.62,0,0,0,1.29,6.15l0,.05c.11.31.22.61.34.91l.09.21c.1.25.21.49.32.73s.11.25.17.37.18.37.27.55l.27.54.21.36q.18.35.39.69l.12.19c.17.27.34.55.52.82l0,0a23.72,23.72,0,0,0,4.21,4.72l.41.36.19.15c.26.2.51.41.78.6l0,0,0,0c.49.37,1,.71,1.52,1l.11.07q.75.46,1.53.87l.26.13q.76.39,1.56.72l.2.08c.48.2,1,.37,1.45.54l.29.1c.51.16,1,.3,1.56.43l.4.1c.46.1.93.19,1.4.27l.26,0c.51.07,1,.13,1.54.18l.53,0c.46,0,.93,0,1.4,0h220.79a24,24,0,0,0,0-48h-173l194.21-262.91A24,24,0,0,0,1106.67,359.66Z"/><path class="cls-1" d="M1420.84,346.48a24,24,0,0,0-24,24V551.8a100.09,100.09,0,0,1-200.17,0V373.06a24,24,0,1,0-48,0V551.8c0,81.65,66.43,148.08,148.09,148.08a147.51,147.51,0,0,0,100.08-39v53.52a101.31,101.31,0,0,1-200.63,19.91,24,24,0,0,0-47.08,9.36,149.38,149.38,0,0,0,146.41,120c82.32,0,149.3-67,149.3-149.29V370.48A24,24,0,0,0,1420.84,346.48Z"/><path class="cls-2" d="M2151.43,695.65H1954.25a24,24,0,0,1-20.89-12.19L1850.53,537a24,24,0,0,1,.07-23.75l88-153.52a24,24,0,0,1,20.83-12.06H2126a24,24,0,0,1,18.48,8.68l34.35,41.41a24,24,0,0,1,2.14,27.62l-87.06,145.88a24,24,0,0,1-20.61,11.7h-80.47a24,24,0,1,1,0-48h66.84l71.39-119.61-16.33-19.68H1973.33L1899,525.25l69.21,122.4h183.18a24,24,0,0,1,0,48Z"/><path class="cls-2" d="M2484.81,695.65H2287.63a24,24,0,0,1-20.89-12.19L2183.92,537a24,24,0,0,1,.07-23.75l88-153.52a24,24,0,0,1,20.82-12.06H2459.4a24,24,0,0,1,18.47,8.68l34.35,41.41a24,24,0,0,1,2.14,27.62L2427.3,571.24a24,24,0,0,1-20.61,11.7h-80.47a24,24,0,0,1,0-48h66.85l71.38-119.61-16.33-19.68h-141.4l-74.29,129.6,69.2,122.4h183.18a24,24,0,0,1,0,48Z"/><circle class="cls-2" cx="464.37" cy="262.24" r="30.59"/><path class="cls-2" d="M2233.66,128.71c-2.47-11.06-23.18-29.17-57.18-24.23-27.57,4-68.22,23.72-95.21,40.13-6.29,3.82-11.84,7.47-16.31,10.69,0,0-1.06-2.23,2.23-7.06,2.56-3.76,6.92-20.37-5.87-30.42a30.22,30.22,0,0,0-8.25-4.46,137,137,0,0,1,18-19.67c17.72-15.89,44.24-20.38,44.62-20.44a4,4,0,0,0-1.27-7.9c-1.19.19-29.15,4.86-48.69,22.38a144.37,144.37,0,0,0-20.94,23.35c-8.37-1.51-26.83-1.77-38.18-.34a145.09,145.09,0,0,0-20.7-23c-19.53-17.52-47.5-22.19-48.68-22.38a4,4,0,0,0-1.28,7.9c.27,0,26.87,4.51,44.62,20.44A136.25,136.25,0,0,1,1998,112.55a31.77,31.77,0,0,0-10.39,5.27c-12.79,10.05-8.44,26.66-5.87,30.42,3.29,4.83,2.23,7.06,2.23,7.06-4.47-3.22-10-6.87-16.31-10.69-27-16.41-67.65-36.12-95.22-40.13-34-4.94-54.7,13.17-57.17,24.23s-.83,37.06,20.47,59.88,55,40.56,68.64,40.48a41.6,41.6,0,0,0,8.18-.84h0a18.39,18.39,0,0,0,2.07-.46l.56-.15c7.14-1.87,15.43-5.74,28-12.6,14.73-7.48,32-16.66,47.47-23.53a83.12,83.12,0,0,1,16.51-5.4l.15,0a92.15,92.15,0,0,1,15.6-1.71l1.53,0c.51,0,1,0,1.53,0a92.15,92.15,0,0,1,15.6,1.71l.15,0a83.12,83.12,0,0,1,16.51,5.4c15.44,6.87,32.73,16.05,47.47,23.53,12.57,6.87,20.87,10.74,28,12.6l.55.15a20.45,20.45,0,0,0,2,.46h.07a41.51,41.51,0,0,0,8.17.84c13.68.08,47.36-17.65,68.65-40.48S2236.13,139.77,2233.66,128.71Z"/><path class="cls-1" d="M2063.67,303.71c-9.54,10.86-22.58,20.27-38.46,20.27H2025c-16.88,0-29.91-9.41-39.19-20.27Z"/><path class="cls-1" d="M2084.21,261.3a77.6,77.6,0,0,1-3.2,13.91c-.35,1-.83,2.26-1.42,3.62h-109c-.57-1.36-1-2.58-1.38-3.62A76.79,76.79,0,0,1,1966,261.3Z"/><path class="cls-1" d="M2083.43,232.59H1966.8a38.26,38.26,0,0,1,1.53-4.82c5.23-13.19,27.23-15.16,55.33-15.12h1.46c.48,0,1,0,1.45,0,28.09-.05,50.09,1.94,55.33,15.12A38.26,38.26,0,0,1,2083.43,232.59Z"/></svg>